<svg width="58" height="57" viewBox="0 0 58 57" fill="none" xmlns="http://www.w3.org/2000/svg">
<g filter="url(#filter0_dd_5040_406806)">
<g clip-path="url(#clip0_5040_406806)">
<rect x="5" y="3" width="48" height="48" rx="12" fill="white"/>
<rect x="5" y="3" width="48" height="48" rx="12" fill="url(#paint0_linear_5040_406806)"/>
<path fill-rule="evenodd" clip-rule="evenodd" d="M28.9997 6.0584C17.4339 6.0584 8.05791 15.4343 8.05791 27.0001C8.05791 38.566 17.4339 47.9419 28.9997 47.9419C40.5655 47.9419 49.9414 38.566 49.9414 27.0001C49.9414 15.4343 40.5655 6.0584 28.9997 6.0584ZM7.94141 27.0001C7.94141 15.37 17.3695 5.94189 28.9997 5.94189C40.6298 5.94189 50.0579 15.37 50.0579 27.0001C50.0579 38.6303 40.6298 48.0584 28.9997 48.0584C17.3695 48.0584 7.94141 38.6303 7.94141 27.0001Z" fill="#D0D5DD"/>
<path fill-rule="evenodd" clip-rule="evenodd" d="M29 21.117C25.7506 21.117 23.1165 23.7511 23.1165 27.0005C23.1165 30.2499 25.7506 32.884 29 32.884C32.2494 32.884 34.8835 30.2499 34.8835 27.0005C34.8835 23.7511 32.2494 21.117 29 21.117ZM23 27.0005C23 23.6868 25.6863 21.0005 29 21.0005C32.3137 21.0005 35 23.6868 35 27.0005C35 30.3142 32.3137 33.0005 29 33.0005C25.6863 33.0005 23 30.3142 23 27.0005Z" fill="#D0D5DD"/>
<path fill-rule="evenodd" clip-rule="evenodd" d="M28.9999 22.9803C26.7801 22.9803 24.9805 24.7798 24.9805 26.9997C24.9805 29.2196 26.7801 31.0191 28.9999 31.0191C31.2198 31.0191 33.0194 29.2196 33.0194 26.9997C33.0194 24.7798 31.2198 22.9803 28.9999 22.9803ZM24.864 26.9997C24.864 24.7155 26.7157 22.8638 28.9999 22.8638C31.2841 22.8638 33.1359 24.7155 33.1359 26.9997C33.1359 29.2839 31.2841 31.1356 28.9999 31.1356C26.7157 31.1356 24.864 29.2839 24.864 26.9997Z" fill="#D0D5DD"/>
<path d="M28.9414 3H29.0579V51H28.9414V3Z" fill="#D0D5DD"/>
<path d="M53 26.9414L53 27.0579L5 27.0579L5 26.9414L53 26.9414Z" fill="#D0D5DD"/>
<path d="M44.9031 3H45.0196V51H44.9031V3Z" fill="#D0D5DD"/>
<path d="M20.9609 3H21.0774V51H20.9609V3Z" fill="#D0D5DD"/>
<path d="M36.9226 3H37.0391V51H36.9226V3Z" fill="#D0D5DD"/>
<path d="M12.9805 3H13.097V51H12.9805V3Z" fill="#D0D5DD"/>
<path d="M53 42.9023L53 43.0188L5 43.0188L5 42.9023L53 42.9023Z" fill="#D0D5DD"/>
<path d="M53 18.9609L53 19.0774L5 19.0774L5 18.9609L53 18.9609Z" fill="#D0D5DD"/>
<path d="M53 34.9219L53 35.0384L5 35.0384L5 34.9219L53 34.9219Z" fill="#D0D5DD"/>
<path d="M53 10.9805L53 11.097L5 11.097L5 10.9805L53 10.9805Z" fill="#D0D5DD"/>
<g filter="url(#filter1_dd_5040_406806)">
<circle cx="29" cy="27" r="12" fill="#F63D68"/>
</g>
<g filter="url(#filter2_b_5040_406806)">
<path d="M5 27H53V31.8C53 38.5206 53 41.8809 51.6921 44.4479C50.5416 46.7058 48.7058 48.5416 46.4479 49.6921C43.8809 51 40.5206 51 33.8 51H24.2C17.4794 51 14.1191 51 11.5521 49.6921C9.29417 48.5416 7.4584 46.7058 6.30792 44.4479C5 41.8809 5 38.5206 5 31.8V27Z" fill="white" fill-opacity="0.2"/>
</g>
</g>
<rect x="5.15" y="3.15" width="47.7" height="47.7" rx="11.85" stroke="#D0D5DD" stroke-width="0.3"/>
</g>
<defs>
<filter id="filter0_dd_5040_406806" x="0.5" y="0" width="57" height="57" filterUnits="userSpaceOnUse" color-interpolation-filters="sRGB">
<feFlood flood-opacity="0" result="BackgroundImageFix"/>
<feColorMatrix in="SourceAlpha" type="matrix" values="0 0 0 0 0 0 0 0 0 0 0 0 0 0 0 0 0 0 127 0" result="hardAlpha"/>
<feOffset dy="1.5"/>
<feGaussianBlur stdDeviation="1.5"/>
<feColorMatrix type="matrix" values="0 0 0 0 0.0627451 0 0 0 0 0.0941176 0 0 0 0 0.156863 0 0 0 0.06 0"/>
<feBlend mode="normal" in2="BackgroundImageFix" result="effect1_dropShadow_5040_406806"/>
<feColorMatrix in="SourceAlpha" type="matrix" values="0 0 0 0 0 0 0 0 0 0 0 0 0 0 0 0 0 0 127 0" result="hardAlpha"/>
<feOffset dy="1.5"/>
<feGaussianBlur stdDeviation="2.25"/>
<feColorMatrix type="matrix" values="0 0 0 0 0.0627451 0 0 0 0 0.0941176 0 0 0 0 0.156863 0 0 0 0.1 0"/>
<feBlend mode="normal" in2="effect1_dropShadow_5040_406806" result="effect2_dropShadow_5040_406806"/>
<feBlend mode="normal" in="SourceGraphic" in2="effect2_dropShadow_5040_406806" result="shape"/>
</filter>
<filter id="filter1_dd_5040_406806" x="14" y="13" width="30" height="30" filterUnits="userSpaceOnUse" color-interpolation-filters="sRGB">
<feFlood flood-opacity="0" result="BackgroundImageFix"/>
<feColorMatrix in="SourceAlpha" type="matrix" values="0 0 0 0 0 0 0 0 0 0 0 0 0 0 0 0 0 0 127 0" result="hardAlpha"/>
<feOffset dy="1"/>
<feGaussianBlur stdDeviation="1"/>
<feColorMatrix type="matrix" values="0 0 0 0 0.0627451 0 0 0 0 0.0941176 0 0 0 0 0.156863 0 0 0 0.06 0"/>
<feBlend mode="normal" in2="BackgroundImageFix" result="effect1_dropShadow_5040_406806"/>
<feColorMatrix in="SourceAlpha" type="matrix" values="0 0 0 0 0 0 0 0 0 0 0 0 0 0 0 0 0 0 127 0" result="hardAlpha"/>
<feOffset dy="1"/>
<feGaussianBlur stdDeviation="1.5"/>
<feColorMatrix type="matrix" values="0 0 0 0 0.0627451 0 0 0 0 0.0941176 0 0 0 0 0.156863 0 0 0 0.1 0"/>
<feBlend mode="normal" in2="effect1_dropShadow_5040_406806" result="effect2_dropShadow_5040_406806"/>
<feBlend mode="normal" in="SourceGraphic" in2="effect2_dropShadow_5040_406806" result="shape"/>
</filter>
<filter id="filter2_b_5040_406806" x="-2.5" y="19.5" width="63" height="39" filterUnits="userSpaceOnUse" color-interpolation-filters="sRGB">
<feFlood flood-opacity="0" result="BackgroundImageFix"/>
<feGaussianBlur in="BackgroundImageFix" stdDeviation="3.75"/>
<feComposite in2="SourceAlpha" operator="in" result="effect1_backgroundBlur_5040_406806"/>
<feBlend mode="normal" in="SourceGraphic" in2="effect1_backgroundBlur_5040_406806" result="shape"/>
</filter>
<linearGradient id="paint0_linear_5040_406806" x1="29" y1="3" x2="29" y2="51" gradientUnits="userSpaceOnUse">
<stop stop-color="white"/>
<stop offset="1" stop-color="#D0D5DD"/>
</linearGradient>
<clipPath id="clip0_5040_406806">
<rect x="5" y="3" width="48" height="48" rx="12" fill="white"/>
</clipPath>
</defs>
</svg>
