<svg width="375" height="342" viewBox="0 0 375 342" fill="none" xmlns="http://www.w3.org/2000/svg">
<g clip-path="url(#clip0_7_8999)">
<path fill-rule="evenodd" clip-rule="evenodd" d="M191.683 59.2199C188.968 67.5739 187.5 76.4905 187.5 85.75C187.5 95.0095 188.968 103.926 191.683 112.28V59.2199ZM200.049 130.435C198.529 127.95 197.132 125.382 195.866 122.739V48.7612C197.132 46.1181 198.529 43.5498 200.049 41.065V130.435ZM208.415 141.872C206.954 140.186 205.559 138.443 204.232 136.647V34.8531C205.559 33.0565 206.954 31.3135 208.415 29.6281V141.872ZM216.78 150.283C215.343 149.024 213.948 147.717 212.598 146.366V25.1336C213.948 23.7826 215.343 22.4764 216.78 21.2174V150.283ZM225.146 156.747C223.721 155.779 222.326 154.769 220.963 153.72V17.7801C222.326 16.7305 223.721 15.7209 225.146 14.7531V156.747ZM233.512 161.756C232.094 161.013 230.699 160.232 229.329 159.413V12.0867C230.699 11.2681 232.094 10.4866 233.512 9.74362V161.756ZM241.878 165.58C240.465 165.024 239.07 164.432 237.695 163.804V7.69551C239.07 7.06807 240.465 6.47591 241.878 5.92018V165.58ZM250.244 168.379C248.835 167.987 247.44 167.561 246.061 167.1V4.40007C247.44 3.93937 248.835 3.51276 250.244 3.12123V168.379ZM258.61 170.255C257.203 170.013 255.809 169.737 254.427 169.428V2.07246C255.809 1.76293 257.203 1.48676 258.61 1.24484V170.255ZM266.976 171.274C265.572 171.172 264.177 171.037 262.793 170.869V0.631231C264.177 0.462911 265.572 0.327582 266.976 0.226053V171.274ZM275.341 171.475C274.646 171.492 273.949 171.5 273.25 171.5C272.551 171.5 271.854 171.492 271.159 171.475V0.0250064C271.854 0.00836702 272.551 0 273.25 0C273.949 0 274.646 0.00836702 275.341 0.0250064V171.475ZM283.707 170.869C282.323 171.037 280.928 171.172 279.524 171.274V0.226053C280.928 0.327581 282.323 0.46291 283.707 0.63123V170.869ZM292.073 169.428C290.691 169.737 289.297 170.013 287.89 170.255V1.24484C289.297 1.48676 290.691 1.76293 292.073 2.07246V169.428ZM300.439 167.1C299.06 167.561 297.665 167.987 296.256 168.379V3.12122C297.665 3.51275 299.06 3.93937 300.439 4.40007V167.1ZM308.805 163.804C307.43 164.432 306.035 165.024 304.622 165.58V5.92017C306.035 6.47591 307.43 7.06807 308.805 7.69551V163.804ZM317.171 159.413C315.801 160.232 314.406 161.013 312.988 161.756V9.74361C314.406 10.4866 315.801 11.268 317.171 12.0867V159.413ZM325.537 153.72C324.174 154.769 322.779 155.779 321.354 156.747V14.7531C322.779 15.7209 324.174 16.7305 325.537 17.7801V153.72ZM333.902 146.366C332.552 147.717 331.157 149.024 329.72 150.283V21.2174C331.157 22.4764 332.552 23.7826 333.902 25.1336V146.366ZM342.268 136.647C340.941 138.443 339.546 140.186 338.085 141.872V29.6281C339.546 31.3135 340.941 33.0565 342.268 34.8531V136.647ZM350.634 122.739C349.368 125.382 347.971 127.95 346.451 130.435V41.0649C347.971 43.5498 349.368 46.118 350.634 48.7612V122.739ZM359 85.75C359 95.0095 357.532 103.926 354.817 112.28V59.2199C357.532 67.5738 359 76.4905 359 85.75Z" fill="#84CDDA"/>
<path d="M359 85.75C359 133.108 320.608 171.5 273.25 171.5V0C320.608 0 359 38.3916 359 85.75Z" fill="#84CDDA"/>
<path d="M16.0005 0C63.3589 0 101.75 38.3916 101.75 85.75C101.75 38.3916 140.142 0 187.5 0V85.75C187.5 133.108 149.109 171.5 101.75 171.5C54.3921 171.5 16.0005 133.108 16.0005 85.75V0Z" fill="#05A2C2"/>
<path d="M187.5 257.25C187.5 304.608 149.108 343 101.75 343C54.3916 343 16 304.608 16 257.25H187.5Z" fill="#0C7792"/>
<path d="M16.0002 171.5H20.1831V257.25L16 257.25L16.0002 171.5Z" fill="#0C7792"/>
<path d="M24.366 171.5H28.549V257.25H24.366V171.5Z" fill="#0C7792"/>
<path d="M32.7319 171.5H36.9148V257.25H32.7319V171.5Z" fill="#0C7792"/>
<path d="M41.0977 171.5H45.2807V257.25H41.0977V171.5Z" fill="#0C7792"/>
<path d="M49.4636 171.5H53.6465V257.25H49.4636V171.5Z" fill="#0C7792"/>
<path d="M57.8294 171.5H62.0124V257.25H57.8294V171.5Z" fill="#0C7792"/>
<path d="M66.1953 171.5H70.3782V257.25H66.1953V171.5Z" fill="#0C7792"/>
<path d="M74.5611 171.5H78.7441V257.25H74.5611V171.5Z" fill="#0C7792"/>
<path d="M82.927 171.5H87.1099V257.25H82.927V171.5Z" fill="#0C7792"/>
<path d="M91.2929 171.5H95.4758V257.25H91.2929V171.5Z" fill="#0C7792"/>
<path d="M99.6587 171.5H103.842V257.25H99.6587V171.5Z" fill="#0C7792"/>
<path d="M108.025 171.5H112.207V257.25H108.025V171.5Z" fill="#0C7792"/>
<path d="M116.39 171.5H120.573V257.25H116.39V171.5Z" fill="#0C7792"/>
<path d="M124.756 171.5H128.939V257.25H124.756V171.5Z" fill="#0C7792"/>
<path d="M133.122 171.5H137.305V257.25H133.122V171.5Z" fill="#0C7792"/>
<path d="M141.488 171.5H145.671V257.25H141.488V171.5Z" fill="#0C7792"/>
<path d="M149.854 171.5H154.037V257.25H149.854V171.5Z" fill="#0C7792"/>
<path d="M158.22 171.5H162.403V257.25H158.22V171.5Z" fill="#0C7792"/>
<path d="M166.586 171.5H170.768V257.25H166.586V171.5Z" fill="#0C7792"/>
<path d="M174.951 171.5H179.134V257.25H174.951V171.5Z" fill="#0C7792"/>
<path d="M183.317 171.5H187.5L187.5 257.25L183.317 257.25V171.5Z" fill="#0C7792"/>
<path d="M273.75 342.5C273.75 333.241 272.282 324.324 269.567 315.97V342.5H273.75Z" fill="#AADEE6"/>
<path d="M261.201 297.815C262.721 300.3 264.118 302.868 265.384 305.512L265.384 342.5H261.201V297.815Z" fill="#AADEE6"/>
<path d="M252.835 286.378C254.296 288.064 255.691 289.807 257.018 291.603V342.5H252.835L252.835 286.378Z" fill="#AADEE6"/>
<path d="M244.469 277.968C245.907 279.227 247.302 280.533 248.652 281.884V342.5H244.47L244.469 277.968Z" fill="#AADEE6"/>
<path d="M236.104 271.503C237.529 272.471 238.924 273.481 240.287 274.53V342.5H236.104V271.503Z" fill="#AADEE6"/>
<path d="M227.738 266.494C229.156 267.237 230.551 268.018 231.921 268.837L231.921 342.5H227.738V266.494Z" fill="#AADEE6"/>
<path d="M219.372 262.67C220.785 263.226 222.18 263.818 223.555 264.446V342.5H219.372V262.67Z" fill="#AADEE6"/>
<path d="M211.006 259.872C212.415 260.263 213.81 260.69 215.189 261.15L215.189 342.5H211.006L211.006 259.872Z" fill="#AADEE6"/>
<path d="M202.64 257.995C204.047 258.237 205.441 258.513 206.823 258.823L206.823 342.5H202.64L202.64 257.995Z" fill="#AADEE6"/>
<path d="M194.274 256.976C195.678 257.078 197.073 257.213 198.457 257.382L198.457 342.5H194.274L194.274 256.976Z" fill="#AADEE6"/>
<path d="M188 256.775C189.39 256.742 188.701 256.742 190.091 256.775L190.091 342.5H188L188 256.775Z" fill="#AADEE6"/>
<path fill-rule="evenodd" clip-rule="evenodd" d="M359.5 342.5C359.5 247.783 282.717 171 188 171V213.875C259.038 213.875 316.625 271.462 316.625 342.5L359.5 342.5Z" fill="#AADEE6"/>
</g>
<defs>
<clipPath id="clip0_7_8999">
<rect width="343" height="342" fill="white" transform="translate(16)"/>
</clipPath>
</defs>
</svg>
